<svg xmlns="http://www.w3.org/2000/svg" width="480" height="192"><g fill="none" fill-rule="evenodd"><rect width="479" height="191" x=".5" y=".5" stroke="#E8E9EB" rx="4"/><path fill="#595959" fill-rule="nonzero" d="M96.059 48c26.554 0 48.072 21.493 48.072 47.998 0 26.51-21.518 48.002-48.072 48.002C69.518 144 48 122.507 48 95.998 48 69.493 69.518 48 96.059 48zm0 3.709c-24.496 0-44.345 19.826-44.345 44.29 0 24.462 19.849 44.292 44.345 44.292 24.502 0 44.355-19.83 44.355-44.293s-19.853-44.29-44.355-44.29zm3.065 9.804s1.106 2.012 6.264 1.094c4.266-.762 6.627.35 6.627 1.775 0 0 3.035.363 4.388 1.24 1.357.877-.081 3.068-.081 3.068-.207-.403-.495-.64-1.316-.82 0 0-3.28-.843-4.422 1.291-2.493.213-4.647 1.704-5.66 3.732-.055.119-1.004 1.995-.414 5.782.308 1.988 1.292 3.674 2.689 5.11.61.63 1.37 1.033 2.293.928 1.458-.169 2.669-.867 3.71-1.896.57-.566.746-1.21.308-1.951-.057-.098-.091-.21-.132-.322-1.289-3.116-.21-5.873 1.98-7.505 1.611-1.196 3.47-1.338 5.359-1.07 12.456 1.754 12.873 14.336 12.873 18.217v1.036c.01 10.43.17 17.779.248 19.231.125 2.276.919 2.754 1.424 3.113-.793.549-7.278-1.49-8.834-3.424-.105-.129-.319-.183-.482-.227-3.862-.898-3.87-4.931-3.944-6.154-3.232 0-4.483-3.526-4.826-4.444a11.107 11.107 0 01-.583-2.546c0 1.717-2.54 3.19-5.274.453 0 2.815-3.354 2.317-5.022.65-.146.57-1.072 2.02-1.072 2.02 1.916.348 2.778.768 3.683 1.56 2.123 1.863 2.364 4.972 2.364 6.578 0 0 2.923 2.851 4.08 3.908.342.319.719.596 1.095.88 2.998-3.352 3.995-2.045 3.992-2.035 2.218-.894 3.445.688 2.96 1.494-.518-.586-1.356-.413-1.861.04 2.994.505 2.295 2.7 1.488 3.16 0-.63-.196-1.33-1.14-1.395.048.969-.606 1.138-1.227 1.162-1.485.064-3.964.132-4.72.87-.435.42-.224 1.653-.689 2.073-.387.345-.797.305-1.014.308-.071.454.064.965.641 1.568-2.157.176-3.771-1.72-2.703-2.733.448-.423 1.953-1.85 2.031-2.472.099-.66-.6-1.403-1.085-1.833a36.687 36.687 0 00-1.934-1.586l-1.325-1.022a8.236 8.236 0 00-1.071-.684 1.434 1.434 0 00-1.1-.118c-.827.257-.817.237-1.03.095-.814-.535-2.286-1.741-5.348-2.08.203.129.346.264.464.423.163.23.282.505.455.878.2.423.352.857.532 1.28 1.98 4.68 3.94 9.276 5.915 13.957.654 1.548.07 2.903-1.526 3.648-1.164.542-2.49.25-3.27-.874.224.772.33 1.44.014 2.083-.312.643-.817 1.104-1.479 1.385-.637.281-1.39.38-2.085.24-.71-.142-1.18-.61-1.543-1.297-.062 1.528-1.069 2.645-2.73 2.645-1.662 0-2.67-1.117-2.73-2.645-.363.688-.835 1.155-1.544 1.297a3.546 3.546 0 01-2.085-.24c-.662-.281-1.167-.742-1.479-1.385-.315-.644-.21-1.308.014-2.083-.78 1.124-2.106 1.416-3.27.874-1.597-.745-2.18-2.1-1.526-3.648 1.974-4.68 3.934-9.277 5.915-13.957.18-.423.332-.857.532-1.28.173-.376.289-.65.451-.878.119-.159.261-.294.468-.423-3.062.335-4.537 1.545-5.348 2.08-.213.142-.203.162-1.03-.095a1.432 1.432 0 00-1.1.118c-.37.204-.749.43-1.071.684-1.102.857-2.222 1.687-3.26 2.608-.484.43-1.183 1.172-1.084 1.833.074.62 1.583 2.049 2.03 2.472 1.07 1.013-.545 2.913-2.702 2.733.577-.603.709-1.114.638-1.568-.214-.003-.624.037-1.011-.308-.468-.42-.258-1.653-.688-2.073-.76-.738-3.24-.806-4.721-.87-.62-.024-1.275-.193-1.228-1.162-.946.061-1.14.762-1.14 1.395-.81-.46-1.505-2.658 1.49-3.16-.506-.453-1.347-.626-1.862-.04-.485-.806.742-2.388 2.96-1.494-.007-.01.994-1.314 3.992 2.036.376-.285.753-.562 1.095-.88 1.157-1.054 4.08-3.91 4.08-3.91 0-1.601.24-4.71 2.36-6.576.91-.793 1.77-1.213 3.687-1.562 0 0-.926-1.45-1.072-2.018-1.668 1.67-5.022 2.164-5.022-.65-2.734 2.733-5.274 1.263-5.274-.454a11.106 11.106 0 01-.583 2.546c-.343.918-1.594 4.444-4.826 4.444-.075 1.223-.082 5.253-3.944 6.154-.163.04-.377.098-.482.227-1.56 1.937-8.04 3.973-8.838 3.424.506-.363 1.3-.837 1.425-3.113.081-1.5.247-9.29.247-20.267l.001-.256c.022-4.15.682-16.244 12.876-17.961 1.89-.268 3.748-.126 5.358 1.07 2.191 1.632 3.27 4.39 1.981 7.505-.04.112-.075.224-.132.322-.438.742-.261 1.385.308 1.95 1.041 1.03 2.252 1.728 3.71 1.897.923.105 1.683-.298 2.293-.928 1.397-1.436 2.347-3.126 2.69-5.11.647-3.77-.36-5.663-.414-5.782-1.014-2.028-3.168-3.519-5.66-3.732-1.143-2.134-4.423-1.29-4.423-1.29-.82.18-1.109.416-1.32.82 0 0-1.434-2.192-.08-3.07 1.356-.876 4.391-1.239 4.391-1.239 0-1.426 2.36-2.537 6.624-1.775 5.158.918 6.267-1.094 6.267-1.094.213 2.466-1.672 3.736-2.276 4.082 1.957 2.12 4.69 6.357 5.342 12.368.65-6.011 3.384-10.248 5.34-12.368-.606-.346-2.488-1.616-2.275-4.082zm104.86 27.309c4.985 0 8.445 2.455 8.445 8.382v11.76c0 2.42.518 2.986 1.512 2.986a4.33 4.33 0 001.143-.193l.281 1.142c-1.512.758-2.936.904-3.557.904-1.564 0-2.557-.711-2.94-2.09l-.282-1.036c-2.564 2.035-5.365 3.126-7.691 3.126-4.324 0-7.129-2.28-7.129-6.262 0-4.268 3.188-6.263 7.553-7.062l4.836-.904c1.62-.285 2.482-.759 2.482-1.94 0-5.166-2.187-6.493-5.796-6.493-2.798 0-4.893.806-6.41 3.891h-.573v-2.95c1.856-2.27 5.267-3.261 8.126-3.261zm142.945 0c2.472 0 5.171.47 8.213 2.082l-1.183 3.55h-.573c-1.662-2.7-3.985-3.79-6.596-3.79-5.559 0-8.214 5.358-8.214 10.57 0 6.019 3.316 10.713 9.207 10.713 1.954 0 3.707-.281 6.457-3.272l.431.522-.573 2.323c-2.29 1.52-4.84 2.28-7.783 2.28-7.41 0-12.25-5.169-12.25-12.47 0-7.631 5.223-12.508 12.864-12.508zm-27.965 0c7.216 0 11.73 5.212 11.73 12.318 0 7.258-4.714 12.66-12.154 12.66-7.309 0-11.873-5.355-11.873-11.993 0-7.868 5.03-12.985 12.297-12.985zm51.941 0c2.47 0 5.172.47 8.21 2.082l-1.2 3.55h-.563c-1.655-2.7-3.981-3.79-6.59-3.79-5.561 0-8.22 5.358-8.22 10.57 0 6.019 3.334 10.713 9.214 10.713 1.937 0 3.7-.281 6.45-3.272l.421.522-.563 2.323c-2.275 1.52-4.846 2.28-7.783 2.28-7.403 0-12.242-5.169-12.242-12.47 0-7.631 5.226-12.508 12.866-12.508zm34.222.47c-.37 3.434-.433 9.115-.437 11.722v.268c0 1.991.054 8.392.437 11.996a17.675 17.675 0 00-2.184-.139 21.3 21.3 0 00-2.476.139c.37-3.498.431-9.63.434-11.81v-.186c0-2.47-.054-5.494-.088-6.496-3.238 3.275-11.788 14.465-14.484 18.492a6.248 6.248 0 00-1.373-.139c-.289 0-1.143.085-1.523.139.368-3.498.427-9.63.43-11.81v-.186c0-2.418-.05-8.433-.43-11.99.81.048 1.848.143 2.418.143.522 0 1.516-.095 2.235-.143-.354 3.311-.414 8.713-.42 11.432v.558c0 1.991.04 4.785.084 6.116 2.615-3.173 11.92-14.976 14.155-18.106.506.092.841.143 1.415.143.281 0 1.275-.095 1.807-.143zm26.873 0c-.354 3.434-.416 9.115-.42 11.722v.268c0 1.991.054 8.392.42 11.996a17.51 17.51 0 00-2.184-.139c-.804 0-1.76.048-2.462.139.369-3.498.418-9.63.42-11.81v-.186c0-2.47-.04-5.494-.084-6.496-3.229 3.275-11.789 14.465-14.492 18.492a6.048 6.048 0 00-1.363-.139c-.288 0-1.143.085-1.512.139.37-3.604.42-10.005.42-11.996 0-2.418-.05-8.433-.42-11.99.8.048 1.838.143 2.407.143.523 0 1.523-.095 2.235-.143-.38 3.557-.42 9.524-.42 11.99 0 1.991.04 4.785.085 6.116 2.614-3.173 11.91-14.976 14.141-18.106.523.092.858.143 1.428.143.282 0 1.286-.095 1.801-.143zm-165.273 0l-11.344 10.144c1.431 1.704 8.967 10.194 12.382 13.842-1.275-.091-2.177-.139-2.842-.139-.858 0-2.14.048-3.134.139-1.756-2.75-7.122-9.053-10.058-12.28h-.767v.318c.006 2.158.064 8.548.41 11.962a17.105 17.105 0 00-2.173-.139c-.797 0-1.747.048-2.473.139.367-3.392.437-9.261.444-11.6v-.396c0-2.418-.054-8.433-.444-11.99.818.044 1.866.143 2.435.143.51 0 1.51-.095 2.212-.143-.367 3.557-.41 9.572-.41 10.432h.766c1.563 0 9.583-9.107 10.347-10.432.66.048 1.746.143 2.316.143.485 0 1.624-.095 2.333-.143zm-26.439 0c-.37 3.434-.427 9.115-.43 11.722v.268c0 1.991.047 8.392.43 11.996a17.482 17.482 0 00-2.187-.139c-.804 0-1.757.048-2.462.139.373-3.604.424-10.005.424-11.515-2.09-.15-4.938-.336-6.03-.336-1.292 0-4.46.085-6.369.23 0 1.616.054 8.014.43 11.621a17.497 17.497 0 00-2.18-.139c-.807 0-1.757.048-2.472.139.354-3.392.417-9.261.423-11.6v-.396c0-2.418-.047-8.433-.423-11.99.807.044 1.858.143 2.431.143.523 0 1.513-.095 2.225-.143-.376 3.6-.43 9.572-.43 9.809 1.997.098 4.886.196 6.42.196 1.563 0 4.554-.095 5.978-.196 0-.281-.05-6.252-.424-9.809.794.048 1.845.143 2.411.143.53 0 1.523-.095 2.235-.143zM168.067 78.81c3.038.146 8.064.427 9.166.427 2.649 0 8.055-.237 11.144-.424a15.04 15.04 0 00-.142 1.707c0 .329.098 1.091.142 1.61-2.757-.38-7.311-.661-8.726-.661-.993 0-4.846.091-6.932.28v11.906h2.418c4.945 0 15.343.945 15.343 9.523 0 6.967-5.843 10.144-13.528 10.097-.862 0-4.083-.14-6.138-.14-.892 0-1.984.048-2.747.14.291-5.22.38-12.423.38-18.398v-.746c-.005-5.334-.053-12.835-.38-15.32zm115.871 0c1.574.044 3.71.146 4.802.146 1.652 0 3.798-.143 5.023-.143 8.783 0 12.208 2.656 12.208 8.623 0 7.736-6.51 10.195-14.233 10.195-.43 0-2.242-.092-3.147-.19v8.196c0 2.371.095 5.267.387 7.638a21.51 21.51 0 00-2.425-.14c-.862 0-1.855.048-2.615.14.278-4.98.378-11.775.386-17.576V94.13c-.004-5.334-.062-12.835-.386-15.32zm34.883 11.854c-5.127 0-7.64 5.358-7.64 10.997 0 5.358 2.231 10.286 7.26 10.286 4.843 0 7.743-4.647 7.743-10.997 0-5.121-1.998-10.286-7.363-10.286zm-110.184 10.38l-3.14.471c-3.419.525-7.22 1.707-7.22 5.318 0 2.747 1.526 4.216 4.605 4.216 1.902 0 3.802-.667 5.755-2.702v-7.302zm-35.918-4.887v14.37c1.235.048 2.7.096 4.033.096 5.606 0 8.868-2.612 8.868-7.495 0-5.26-3.883-6.97-12.9-6.97zm120.1-14.688c-.8 0-3.56.044-4.228.142v13.314c.58.105 1.523.196 1.997.196 6.647 0 10.54-2.655 10.54-7.685 0-4.69-3.703-5.967-8.308-5.967z"/></g></svg>